<svg width="200" height="200" viewBox="0 0 200 200" fill="none" xmlns="http://www.w3.org/2000/svg">
<path d="M54.814 150.123L44.76 37.352H155.24L145.176 150.106L99.933 162.649L54.814 150.123Z" fill="#1572B6"/>
<path d="M100.001 153.062L136.56 142.926L145.161 46.572H100.001V153.062Z" fill="#33A9DC"/>
<path d="M100.001 87.429H118.303L119.567 73.266H100.001V59.435H134.683L134.351 63.146L130.951 101.26H100.001V87.429Z" fill="white"/>
<path d="M100.083 123.349L100.022 123.367L84.619 119.208L83.634 108.177H69.752L71.689 129.894L100.02 137.757L100.083 137.739V123.349Z" fill="#EBEBEB"/>
<path d="M117.127 100.675L115.461 119.197L100.035 123.361V137.751L128.389 129.893L128.597 127.556L131.003 100.675H117.127Z" fill="white"/>
<path d="M100.048 59.435V73.266H66.64L66.363 70.158L65.733 63.146L65.402 59.435H100.048ZM100.001 87.431V101.262H84.792L84.515 98.154L83.884 91.142L83.554 87.431H100.001Z" fill="#EBEBEB"/>
</svg>
