<svg width="200" height="200" viewBox="0 0 200 200" fill="none" xmlns="http://www.w3.org/2000/svg">
<path d="M55.037 149.876L45.032 37.661H154.968L144.952 149.859L99.933 162.339L55.037 149.876Z" fill="#E44D26"/>
<path d="M100 152.8L136.378 142.714L144.937 46.836H100V152.8Z" fill="#F16529"/>
<path d="M100 88.455H81.788L80.53 74.361H100V60.599H65.489L65.819 64.291L69.201 102.218H100V88.455ZM100 124.198L99.939 124.215L84.612 120.075L83.633 109.1H69.816L71.744 130.709L99.937 138.535L100 138.518V124.198Z" fill="#EBEBEB"/>
<path d="M99.952 88.455V102.218H116.899L115.302 120.067L99.952 124.21V138.529L128.167 130.709L128.374 128.384L131.608 92.151L131.943 88.455H128.235H99.952ZM99.952 60.599V74.361H133.196L133.472 71.269L134.1 64.291L134.429 60.599H99.952Z" fill="white"/>
</svg>
