<svg width="200" height="200" viewBox="0 0 200 200" fill="none" xmlns="http://www.w3.org/2000/svg">
<path d="M37.408 37.408H162.592V162.593H37.408V37.408Z" fill="#F0DB4F"/>
<path d="M152.347 132.736C151.43 127.025 147.706 122.228 136.675 117.755C132.843 115.994 128.571 114.733 127.298 111.829C126.846 110.139 126.786 109.187 127.072 108.164C127.893 104.844 131.856 103.809 134.997 104.761C137.02 105.439 138.935 106.998 140.09 109.485C145.492 105.987 145.481 106.01 149.253 103.606C147.872 101.465 147.135 100.477 146.231 99.561C142.982 95.932 138.555 94.063 131.475 94.206L127.787 94.683C124.253 95.576 120.885 97.431 118.91 99.918C112.984 106.642 114.674 118.41 121.885 123.253C128.989 128.585 139.425 129.798 140.758 134.784C142.055 140.888 136.272 142.864 130.524 142.162C126.288 141.281 123.932 139.128 121.385 135.213C116.697 137.926 116.697 137.926 111.877 140.698C113.02 143.197 114.221 144.328 116.137 146.493C125.205 155.691 147.897 155.239 151.967 141.317C152.132 140.839 153.228 137.651 152.347 132.736ZM105.462 94.943H93.753L93.705 125.215C93.705 131.653 94.038 137.555 92.991 139.364C91.278 142.922 86.839 142.481 84.816 141.791C82.757 140.779 81.71 139.34 80.497 137.306C80.164 136.722 79.914 136.27 79.83 136.235L70.31 142.065C71.893 145.314 74.225 148.134 77.212 149.966C81.674 152.644 87.671 153.465 93.943 152.025C98.025 150.836 101.547 148.373 103.391 144.624C106.057 139.709 105.485 133.76 105.461 127.18C105.521 116.445 105.462 105.712 105.462 94.943Z" fill="#323330"/>
</svg>
