<svg width="200" height="200" viewBox="0 0 200 200" fill="none" xmlns="http://www.w3.org/2000/svg">
<path d="M99.391 48.248C95.169 48.268 91.139 48.627 87.591 49.255C77.141 51.101 75.245 54.965 75.245 62.092V71.503H99.938V74.64H65.977C58.801 74.64 52.517 78.953 50.551 87.161C48.283 96.566 48.183 102.436 50.551 112.257C52.306 119.568 56.498 124.776 63.675 124.776H72.166V113.494C72.166 105.343 79.217 98.154 87.592 98.154H112.257C119.123 98.154 124.603 92.5 124.603 85.606V62.093C124.603 55.4 118.957 50.373 112.257 49.256C108.013 48.55 103.612 48.229 99.391 48.248ZM86.037 55.817C88.587 55.817 90.671 57.934 90.671 60.538C90.671 63.131 88.588 65.228 86.037 65.228C83.477 65.228 81.404 63.131 81.404 60.538C81.403 57.934 83.477 55.817 86.037 55.817Z" fill="#4F90C1"/>
<path d="M127.682 74.64V85.606C127.682 94.106 120.474 101.261 112.256 101.261H87.591C80.835 101.261 75.245 107.044 75.245 113.81V137.325C75.245 144.016 81.063 147.953 87.591 149.872C95.407 152.169 102.903 152.585 112.256 149.872C118.472 148.071 124.602 144.449 124.602 137.325V127.913H99.938V124.775H136.95C144.126 124.775 146.802 119.77 149.298 112.256C151.876 104.521 151.765 97.082 149.298 87.16C147.524 80.015 144.137 74.639 136.95 74.639L127.682 74.64ZM113.809 134.187C116.37 134.187 118.443 136.284 118.443 138.879C118.443 141.481 116.369 143.598 113.809 143.598C111.259 143.598 109.176 141.481 109.176 138.879C109.176 136.284 111.259 134.187 113.809 134.187Z" fill="#FFD43B"/>
<path opacity="0.444" d="M133.309 155.597C133.309 159.14 118.493 162.013 100.218 162.013C81.942 162.013 67.126 159.14 67.126 155.597C67.126 152.053 81.941 149.18 100.218 149.18C118.493 149.18 133.309 152.052 133.309 155.597Z" fill="url(#paint0_radial_1_35)"/>
<defs>
<radialGradient id="paint0_radial_1_35" cx="0" cy="0" r="1" gradientUnits="userSpaceOnUse" gradientTransform="translate(100.084 155.413) rotate(-90) scale(6.41832 28.2139)">
<stop stop-color="#B8B8B8" stop-opacity="0.498"/>
<stop offset="1" stop-color="#7F7F7F" stop-opacity="0"/>
</radialGradient>
</defs>
</svg>
