<svg width="200" height="200" viewBox="0 0 200 200" fill="none" xmlns="http://www.w3.org/2000/svg">
<path d="M39.656 81.043C39.656 81.043 36.629 78.852 40.266 75.93L48.734 68.336C48.734 68.336 51.16 65.777 53.723 68.008L131.898 127.336V155.786C131.898 155.786 131.859 160.254 126.141 159.762L39.656 81.043Z" fill="#2489CA"/>
<path d="M59.809 99.379L39.656 117.742C39.656 117.742 37.586 119.285 39.656 122.047L49.012 130.574C49.012 130.574 51.234 132.969 54.52 130.246L75.879 114.008L59.809 99.379Z" fill="#1070B3"/>
<path d="M95.184 99.531L132.137 71.246L131.898 42.949C131.898 42.949 130.32 36.773 125.055 39.99L75.879 84.851L95.184 99.531Z" fill="#0877B9"/>
<path d="M126.14 159.797C128.285 162 130.887 161.277 130.887 161.277L159.684 147.055C163.371 144.535 162.855 141.41 162.855 141.41V56.465C162.855 52.73 159.043 51.441 159.043 51.441L134.082 39.38C128.629 36.001 125.055 39.99 125.055 39.99C125.055 39.99 129.648 36.673 131.898 42.95V155.267C131.898 156.04 131.734 156.797 131.406 157.481C130.75 158.813 129.32 160.051 125.902 159.532L126.14 159.797Z" fill="#3C99D4"/>
</svg>
